<svg viewBox="0 0 9 11" fill="none" xmlns="http://www.w3.org/2000/svg">
  <path d="M1 10H7.54545" stroke="currentColor" stroke-linecap="round" />
  <path
    d="M4.77344 1C4.77344 0.723858 4.54958 0.5 4.27344 0.5C3.9973 0.5 3.77344 0.723858 3.77344 1L4.77344 1ZM3.91988 7.89901C4.11515 8.09427 4.43173 8.09427 4.62699 7.89901L7.80897 4.71703C8.00423 4.52177 8.00423 4.20518 7.80897 4.00992C7.61371 3.81466 7.29713 3.81466 7.10186 4.00992L4.27344 6.83835L1.44501 4.00992C1.24975 3.81466 0.933166 3.81466 0.737904 4.00992C0.542642 4.20518 0.542642 4.52177 0.737904 4.71703L3.91988 7.89901ZM3.77344 1L3.77344 7.54546L4.77344 7.54545L4.77344 1L3.77344 1Z"
    fill="currentColor" />
</svg>