<svg width="17" height="14" viewBox="0 0 17 14" fill="none" xmlns="http://www.w3.org/2000/svg">
<path d="M10.2834 0.0293723C11.1366 0.191858 11.6911 0.982412 11.5205 1.79484L11.445 2.15106C11.2711 2.98536 10.9495 3.77904 10.5 4.50085H15.225C16.0945 4.50085 16.8 5.17266 16.8 6.00071C16.8 6.57879 16.4555 7.08187 15.9502 7.33185C16.3078 7.60682 16.5375 8.02866 16.5375 8.50049C16.5375 9.23168 15.9863 9.841 15.2611 9.97223C15.4055 10.2003 15.4875 10.4659 15.4875 10.7503C15.4875 11.4159 15.0314 11.9814 14.4014 12.1752C14.4244 12.2783 14.4375 12.3876 14.4375 12.5001C14.4375 13.3282 13.732 14 12.8625 14H9.66328C9.03984 14 8.43281 13.825 7.91438 13.4969L6.65109 12.6939C5.775 12.1377 5.25 11.2002 5.25 10.1972V9.00045V7.50058V6.72252C5.25 5.81011 5.68641 4.95081 6.43125 4.37898L6.67406 4.19462C7.54359 3.53218 8.1375 2.60102 8.35406 1.56361L8.42953 1.20739C8.60016 0.394965 9.43031 -0.133113 10.2834 0.0293723ZM1.05 5.0008H3.15C3.73078 5.0008 4.2 5.44764 4.2 6.00071V13.0001C4.2 13.5532 3.73078 14 3.15 14H1.05C0.469219 14 0 13.5532 0 13.0001V6.00071C0 5.44764 0.469219 5.0008 1.05 5.0008Z" fill="currentColor"/>
</svg>
