<svg width="14" height="14" viewBox="0 0 14 14" fill="none" xmlns="http://www.w3.org/2000/svg">
<path d="M0 7C0 5.14348 0.737498 3.36301 2.05025 2.05025C3.36301 0.737498 5.14348 0 7 0C8.85652 0 10.637 0.737498 11.9497 2.05025C13.2625 3.36301 14 5.14348 14 7C14 8.85652 13.2625 10.637 11.9497 11.9497C10.637 13.2625 8.85652 14 7 14C5.14348 14 3.36301 13.2625 2.05025 11.9497C0.737498 10.637 0 8.85652 0 7ZM5.14883 4.02227C4.94102 4.13711 4.8125 4.35859 4.8125 4.59375V9.40625C4.8125 9.64414 4.94102 9.86289 5.14883 9.97773C5.35664 10.0926 5.6082 10.0898 5.81328 9.96406L9.75078 7.55781C9.94492 7.4375 10.0652 7.22695 10.0652 6.99727C10.0652 6.76758 9.94492 6.55703 9.75078 6.43672L5.81328 4.03047C5.61094 3.90742 5.35664 3.90195 5.14883 4.0168V4.02227Z" fill="currentColor"/>
</svg>
