<svg width="14" height="14" viewBox="0 0 14 14" fill="none" xmlns="http://www.w3.org/2000/svg">
<path d="M7 0C3.13306 0 0 3.13306 0 7C0 10.8669 3.13306 14 7 14C10.8669 14 14 10.8669 14 7C14 3.13306 10.8669 0 7 0ZM9.6106 8.83468L9.04609 9.54032C9.00904 9.58664 8.96323 9.62521 8.91128 9.65382C8.85933 9.68243 8.80225 9.70053 8.74331 9.70708C8.68436 9.71364 8.6247 9.70851 8.56773 9.69201C8.51076 9.6755 8.4576 9.64794 8.41129 9.61089L6.52016 8.2075C6.38802 8.10171 6.28137 7.96755 6.20808 7.81497C6.13479 7.66239 6.09675 7.49528 6.09677 7.32601V2.93548C6.09677 2.81571 6.14435 2.70084 6.22905 2.61615C6.31374 2.53145 6.42861 2.48387 6.54839 2.48387H7.45161C7.57139 2.48387 7.68626 2.53145 7.77095 2.61615C7.85565 2.70084 7.90323 2.81571 7.90323 2.93548V7L9.54032 8.1996C9.58666 8.23667 9.62524 8.2825 9.65385 8.33449C9.68246 8.38648 9.70055 8.44359 9.70708 8.50257C9.7136 8.56155 9.70844 8.62124 9.69189 8.67822C9.67534 8.73521 9.64771 8.78837 9.6106 8.83468Z" fill="black"/>
</svg>
